<svg width="44" height="44" viewBox="0 0 44 44" fill="none" xmlns="http://www.w3.org/2000/svg">
<path d="M14.1243 25.3854C14.1243 25.3854 11.3071 33.9141 12.2258 40.5012L12.7956 36.9617C12.7956 36.9617 12.5014 40.6211 12.5726 41.0474C12.5726 41.0474 12.9393 38.8823 13.1466 38.5449C13.1466 38.5449 12.9992 41.4883 13.3373 41.8828L13.6149 41.8376L13.6854 42.38L13.8739 42.2824L13.9845 42.6196L14.1351 42.5013L14.1541 42.8839L14.3801 42.74L14.4746 43.097L14.6252 42.9787C14.6252 42.9787 14.6898 43.4607 14.7747 43.4707C14.8538 43.4814 15.2403 43.322 15.2286 43.2011C15.217 43.0802 15.3231 43.5581 15.2558 43.6683C15.2558 43.6683 15.4221 43.7133 15.5248 43.7827C15.6335 43.8515 15.7537 43.0466 15.7537 43.0466C15.7537 43.0466 15.7389 43.701 15.8162 43.6935C15.8935 43.686 16.1275 43.3766 16.1275 43.3766L16.4171 43.2693L16.4842 43.3421C16.4842 43.3421 16.881 43.1024 16.871 42.9996C16.8611 42.8968 17.2346 43.4709 17.1745 43.8429C17.1745 43.8429 17.3467 43.9483 17.3546 43.8438C17.3625 43.7393 19.0032 34.0245 19.276 32.8752C19.5435 31.7327 20.6401 27.3123 20.6401 27.3123L24.4537 28.4692L24.5828 28.3774L24.8422 28.5781L24.9432 28.5684L25.1947 28.5013L25.2971 28.7538L25.4201 28.7847L25.5372 28.755L25.6897 28.9051L25.8165 28.7891C25.8165 28.7891 25.9058 28.6584 25.967 28.6708C26.0282 28.6832 26.1928 28.71 26.1987 28.7704C26.2045 28.8309 26.1468 28.8548 26.1585 28.9757C26.1702 29.0966 26.1524 29.0983 26.2296 29.0908C26.3069 29.0834 26.2679 28.9285 26.3826 28.9357C26.4973 28.9429 26.4478 29.0514 26.4496 29.0696C26.4513 29.0877 26.4999 29.1563 26.5582 29.1384C26.6165 29.1206 26.7169 29.1048 26.7271 29.0855C26.7432 29.0656 26.8738 29.114 26.8702 29.1388C26.8607 29.1641 26.8243 29.2225 26.8617 29.2372C26.8992 29.2519 27.0246 29.2459 27.0364 29.2447C27.0483 29.2436 27.137 29.1679 27.1619 29.2387C27.1867 29.3095 27.1879 29.3216 27.2205 29.349C27.2591 29.3758 27.3844 29.4308 27.4105 29.4527C27.4366 29.4746 27.4384 29.4927 27.5251 29.5209C27.6118 29.5492 27.732 29.4887 27.7587 29.5166C27.7848 29.5385 27.8578 29.6108 27.8774 29.6272C27.8969 29.6436 27.9984 29.762 28.0134 29.669C28.0284 29.576 27.9769 29.4772 28.0446 29.4951C28.1117 29.5069 28.2509 29.4569 28.2775 29.5458C28.3035 29.6287 28.31 29.6342 28.3153 29.6886C28.3205 29.743 28.3394 29.8144 28.3697 29.8176C28.4 29.8208 28.4352 29.7503 28.4644 29.7413C28.4935 29.7324 28.5921 29.7595 28.6277 29.8171C28.6632 29.8747 28.722 29.9239 28.7482 29.8848C28.7744 29.8456 28.7467 29.6835 28.8506 29.765C28.9598 29.8399 28.9942 29.8854 29.0102 29.9266C29.0262 29.9677 29.0499 30.0265 29.0927 30.0345C29.1354 30.0426 29.2068 30.0357 29.2472 30.0196C29.2876 30.0035 29.3185 30.0127 29.3963 30.0723C29.48 30.1313 29.4188 30.1189 29.5358 30.1504C29.6534 30.1878 29.7044 30.2805 29.7044 30.2805C29.7044 30.2805 29.7549 30.3061 29.8131 30.2883C29.8714 30.2705 29.9398 30.2333 29.9855 30.2716C30.0312 30.3099 30.1084 30.3635 30.1565 30.365C30.2047 30.3664 30.2588 30.3062 30.2916 30.2726C30.3243 30.2389 30.391 30.1836 30.4271 30.2473C30.4579 30.3175 30.4555 30.3544 30.4791 30.4131C30.5022 30.4658 30.6335 30.5202 30.6579 30.524C30.6763 30.5283 30.794 30.5047 30.8183 30.5084C30.8368 30.5128 31.1078 30.8344 31.3635 30.7487C31.6192 30.6629 31.6947 30.6373 31.7184 30.696C31.7421 30.7548 31.7459 30.9802 31.829 31.0332C31.9121 31.0862 32.1932 31.0773 32.1932 31.0773C32.1932 31.0773 32.1282 30.8395 32.2647 31.0094C32.4011 31.1793 32.2924 31.1104 32.4485 31.2357C32.5987 31.3615 33.013 31.3032 33.098 31.3133C33.177 31.3239 33.4526 31.4437 33.4526 31.4437C33.4526 31.4437 33.457 31.303 33.579 31.5108C33.7017 31.7248 33.7017 31.7248 33.7017 31.7248C33.7017 31.7248 33.8516 32.0337 33.9172 31.9053C33.9827 31.7769 34.222 31.9552 34.222 31.9552L34.5308 32.0474C34.5308 32.0474 34.7628 31.9639 34.7704 32.0425C34.778 32.1211 34.8353 32.2803 34.8353 32.2803L35.0213 32.3417L35.1817 32.3262L35.2426 32.5217L35.6426 32.5013L35.6619 32.7008L35.7468 32.7719L35.8756 32.8632L36.0817 32.947C36.0817 32.947 36.4188 32.8961 36.4424 32.9549C36.4661 33.0136 36.6084 33.244 36.6084 33.244C36.6084 33.244 36.8698 33.2797 36.9963 33.3468C37.1228 33.4139 37.3213 33.4191 37.4121 33.4897C37.4969 33.5608 38.0674 33.6277 38.0674 33.6277C38.0674 33.6277 38.5112 33.6885 38.5426 33.7648C38.568 33.8417 38.9686 33.8274 38.9686 33.8274C38.9686 33.8274 39.3092 33.8128 39.3981 33.9262C39.4871 34.0397 39.707 34.0184 39.818 34.1114C39.929 34.2044 40.1846 34.1797 40.2677 34.2327C40.3508 34.2857 40.4323 34.2595 40.4323 34.2595L40.0482 34.0098L39.9574 33.8783L40.0901 33.8227C40.0901 33.8227 40.2701 33.8236 40.3735 33.838C40.4763 33.8464 40.5796 33.9218 40.6546 33.8292C40.7243 33.7431 41.1126 33.6018 41.1126 33.6018C41.1126 33.6018 41.3662 33.7421 41.4256 33.7363C41.485 33.7306 41.6039 33.7191 41.6039 33.7191C41.6039 33.7191 41.7129 33.6048 41.6874 33.5279C41.662 33.4511 41.551 33.3581 41.6029 33.2737C41.6547 33.1894 41.8843 33.0817 41.8843 33.0817C41.8843 33.0817 42.2646 33.106 42.0764 33.0205C41.8881 32.9349 41.8863 32.9168 41.7124 32.7933C41.5385 32.6697 41.4217 32.4552 41.4217 32.4552C41.4217 32.4552 41.4324 32.1308 41.6161 32.4181C41.7999 32.7055 41.8433 32.7196 41.8729 32.7777C41.8966 32.8365 42.1564 32.793 42.2251 32.884C42.2945 32.9811 42.5299 32.9339 42.5774 32.9903C42.6249 33.0468 42.9024 33.0627 42.9677 33.1174C43.0329 33.1721 43.134 33.1623 43.134 33.1623C43.134 33.1623 43.3301 33.1433 42.9185 32.9818C42.501 32.8208 42.4375 32.7842 42.3365 32.7329C42.2296 32.6822 42.1448 32.6111 42.1152 32.4919C42.0857 32.3727 41.961 32.3237 42.0977 32.3105C42.2344 32.2973 42.486 32.1693 42.601 32.3656C42.7213 32.5554 42.8484 32.6285 42.947 32.6556C43.0522 32.6881 43.4861 32.6462 43.4861 32.6462C43.4861 32.6462 43.4624 32.5875 43.1239 32.4371C42.7854 32.2868 42.5302 32.0674 42.6491 32.0559C42.7679 32.0444 43.2414 32.1634 43.2414 32.1634C43.2414 32.1634 43.3679 32.2305 43.4019 32.1478C43.4359 32.0652 43.3963 31.9043 43.3369 31.91C43.2775 31.9158 42.9905 31.8642 42.9905 31.8642L43.3275 31.8133C43.3275 31.8133 43.5636 31.7722 43.2506 31.6377C42.9376 31.5032 42.8746 31.4726 42.8129 31.4542C42.7511 31.4358 42.617 31.2901 42.4745 31.2428C42.3319 31.1956 42.1996 31.068 42.1123 31.0337C42.0309 30.9989 41.8552 30.8572 41.9539 30.8233C42.0532 30.7954 42.3484 30.5593 42.3484 30.5593C42.3484 30.5593 42.4239 30.5337 42.2178 30.4499C42.0117 30.3661 41.9268 30.356 41.8539 30.2227C41.781 30.0894 41.6507 29.7969 41.6507 29.7969C41.6507 29.7969 41.4686 29.5887 41.5187 29.4862C41.5682 29.3777 41.7014 29.3282 41.7014 29.3282C41.7014 29.3282 41.6973 29.2859 41.632 29.2312C41.5668 29.1765 41.3455 28.9355 41.2802 28.8807C41.2149 28.826 41.1183 28.634 40.8568 28.6593C40.6012 28.684 40.6566 28.6359 40.318 28.4856C39.9855 28.3346 40.0905 28.4282 39.6411 28.1238C39.1917 27.8195 39.1917 27.8195 39.1917 27.8195C39.1917 27.8195 39.1069 27.7483 38.9976 27.6735C38.8884 27.5986 38.8196 27.5076 38.7365 27.4546C38.6534 27.4016 37.6597 27.0522 38.6197 27.3011C39.5862 27.5555 39.6433 27.5256 39.9383 27.7229C40.2393 27.9196 40.8337 27.8621 40.9678 28.0078C41.1025 28.1595 41.4908 28.0183 41.5856 28.1922C41.6804 28.3661 41.8051 28.415 41.8687 28.4516C41.9322 28.4882 42.4507 28.7005 42.0845 28.388C41.7124 28.0762 41.5721 28.0531 41.2413 27.9203C40.9105 27.7875 40.986 27.7619 40.7228 27.7081C40.4597 27.6542 40.7033 27.6916 40.0144 27.3921C39.3254 27.0926 39.581 27.0679 39.2048 27.0859C38.8286 27.104 38.6286 26.8975 38.5616 26.8247C38.4946 26.7518 38.4686 26.6689 38.2964 26.5635C38.1242 26.4581 37.9933 26.5318 37.8467 26.4422C37.7 26.3527 37.7357 26.3492 37.5695 26.2432C37.3973 26.1378 37.4392 25.9507 37.1379 25.9371C36.8366 25.9235 36.7795 25.9535 36.6387 25.9244C36.4979 25.8953 36.6209 25.9261 36.3817 25.7478C36.1424 25.5696 36.1662 25.5673 36.0119 25.4602C35.8635 25.3525 35.8298 25.252 35.6497 25.2511C35.4696 25.2502 35.4655 25.2079 35.3426 25.177C35.2196 25.1462 35.7531 24.8932 35.8877 25.045C36.0224 25.1967 36.1387 25.3442 36.1387 25.3442C36.1387 25.3442 36.0555 25.2912 36.3304 25.466C36.6053 25.6408 36.786 25.6477 36.8905 25.6742C36.9951 25.7007 37.2055 25.6438 37.2726 25.7166C37.3396 25.7895 37.5736 25.9133 37.6763 25.9827C37.7849 26.0515 38.1277 26.1221 38.2542 26.1892C38.3807 26.2563 38.7672 26.0969 38.8764 26.2328C38.9909 26.3621 39.088 26.5602 39.1925 26.5867C39.2977 26.6193 39.7079 26.5186 39.7945 26.6078C39.8812 26.6971 40.0735 26.825 40.2023 26.9163C40.3312 27.0075 40.4992 27.0706 40.4992 27.0706C40.4992 27.0706 40.5648 26.9422 40.3968 26.8181C40.2229 26.6946 40.1969 26.6117 39.9238 26.455C39.6506 26.2983 39.5062 26.294 39.1593 26.1811C38.8124 26.0681 39.0448 26.0518 38.5732 25.8899C38.0963 25.7346 38.1118 25.6477 37.9259 25.5863C37.74 25.525 37.6331 25.4743 37.4449 25.3887C37.2566 25.3032 37.4408 25.3464 36.8553 25.0613C36.2691 24.7701 36.3526 24.64 35.923 24.5412C35.4935 24.4424 35.3805 24.5143 35.0081 24.3856C34.6356 24.2568 34.6085 24.1618 34.4576 24.0909C34.3133 24.0256 34.3034 23.9228 34.2202 23.9308C34.1429 23.9383 34.1727 23.8744 33.9985 23.9339C33.8242 23.9935 33.6834 23.9644 33.6834 23.9644L33.6498 23.8029C33.6498 23.8029 33.7453 23.5496 33.5152 23.6511C33.285 23.7527 33.285 23.7527 33.285 23.7527L33.1128 23.6473L33.1011 23.5264L32.9527 23.4187L32.6655 23.5502C32.6655 23.5502 32.6696 23.5925 32.5188 23.4607C32.3687 23.3348 32.2518 23.1813 32.2518 23.1813C32.2518 23.1813 32.123 23.0901 32.0636 23.0958C32.0041 23.1016 31.8004 23.0419 31.7386 23.0235C31.6774 23.0111 31.4892 22.9256 31.4892 22.9256C31.4892 22.9256 31.2677 22.8066 31.2149 22.7568C31.1621 22.707 31.0799 22.7882 30.9606 22.7326C30.8465 22.6704 30.9666 22.671 30.8092 22.5946C30.6519 22.5183 30.6224 22.3381 30.4838 22.4552C30.3451 22.5724 30.3924 22.7509 30.2993 22.5951C30.2063 22.4393 30.1938 22.4345 30.2064 22.3783C30.2195 22.3282 30.3325 22.3173 30.2451 22.283C30.1638 22.2482 30.1044 22.1929 30.033 22.2608C29.9616 22.3287 30.0369 22.4252 29.9217 22.3509C29.8071 22.2827 29.7793 22.2426 29.7793 22.2426C29.7793 22.2426 29.8655 22.2038 29.8121 22.1479C29.7587 22.0921 29.8758 22.0624 29.6975 22.0797C29.5192 22.0969 29.4965 22.1723 29.3931 22.1579C29.2903 22.1496 29.3141 22.1473 29.2524 22.0678C29.1973 21.9938 29.3191 22.0125 29.1617 21.9362C29.0043 21.8599 29.0935 21.8513 28.9111 21.8262C28.7287 21.8011 28.6614 21.8503 28.497 21.7625C28.3265 21.6752 28.3497 21.6669 28.2257 21.5629C28.1082 21.4644 28.4593 21.4976 27.9544 21.3633C27.4495 21.2291 27.3349 21.1608 27.2119 21.13C27.0889 21.0992 26.8704 21.0105 26.7011 20.9353C26.5319 20.8601 26.5101 20.6975 26.3034 20.6686C26.1025 20.6392 26.0224 20.5554 25.616 20.5093C25.2096 20.4632 24.6168 20.2276 24.6168 20.2276C24.6168 20.2276 24.7078 20.2371 24.3437 20.0709C23.9797 19.9047 23.9768 19.8745 23.9002 19.827C23.8242 19.7855 23.6201 19.5367 23.436 19.4935C23.2518 19.4503 23.2726 19.4788 23.1401 19.4122C23.0018 19.3463 22.9423 19.352 22.9423 19.352L23.1007 18.818C23.1007 18.818 23.1108 18.7987 23.1079 18.7685C23.105 18.7383 23.1139 18.7069 23.1449 18.6551C23.1819 18.6027 23.2968 18.4879 23.2742 18.4412C23.2517 18.3946 23.2043 18.3381 23.2043 18.3381L23.1259 18.2725L23.0964 18.1533C23.0964 18.1533 23.1667 18.0733 23.1934 18.1012C23.2201 18.1291 23.3045 18.1332 23.349 18.1594C23.3935 18.1856 23.4844 18.1951 23.4501 18.0886C23.4218 17.9815 23.5024 18.1324 23.4076 17.9585C23.3128 17.7845 23.3128 17.7845 23.3128 17.7845L23.2968 17.7434C23.2968 17.7434 23.4145 17.7198 23.4352 17.7483C23.456 17.7768 23.4012 17.8309 23.456 17.7768C23.5108 17.7227 23.5792 17.6856 23.5472 17.6032C23.5218 17.5264 23.5159 17.4659 23.513 17.4357C23.5101 17.4054 23.6132 17.2307 23.6132 17.2307C23.6132 17.2307 23.6376 16.8622 23.6655 16.8412C23.6935 16.8202 23.8509 16.8965 23.8619 16.7002C23.8729 16.5038 23.8843 16.4356 23.8814 16.4054C23.8784 16.3751 23.8595 16.3037 23.7866 16.2315C23.7136 16.1592 23.6251 16.1128 23.668 16.0599C23.7109 16.0069 23.702 15.9772 23.7323 15.9804C23.7626 15.9836 23.7512 16.0518 23.8137 16.0153C23.8821 15.9781 23.8448 15.9024 23.9078 15.8719C23.9774 15.8469 24.1343 16.1673 24.0506 15.7971C23.9668 15.4269 23.9395 15.3929 23.9395 15.3929L24.0228 15.3238C24.0228 15.3238 24.0597 15.2714 24.0883 15.2564C24.1168 15.2415 24.2202 15.2559 24.2537 15.1062C24.2878 14.9626 24.2898 14.8586 24.3209 14.7458C24.352 14.6329 24.2955 14.6689 24.3777 14.5267C24.4659 14.3839 24.5015 14.4415 24.5225 14.2869C24.5436 14.1323 24.5407 14.0411 24.4945 13.9967C24.4482 13.9524 24.3805 13.9345 24.4245 13.8936C24.468 13.8467 24.6048 13.7725 24.6048 13.7725C24.6048 13.7725 24.5998 13.9072 24.682 13.765C24.7702 13.6222 24.789 13.7547 24.7686 13.5431C24.7481 13.3315 24.7394 13.2408 24.7394 13.2408C24.7394 13.2408 24.7752 13.1153 24.7961 13.0827C24.8169 13.0502 24.933 12.9474 24.9432 12.8671C24.9534 12.7868 24.8992 12.5358 24.8992 12.5358L24.9071 12.4313C24.9071 12.4313 24.9785 12.3633 25.0528 12.3867C25.127 12.41 25.218 12.3585 25.252 12.2759C25.286 12.1932 25.1544 12.0107 25.092 11.9862C25.0297 11.9617 25.2064 11.8043 25.2064 11.8043C25.2064 11.8043 25.3035 11.6912 25.3238 11.6526C25.3375 11.6085 25.3793 11.4825 25.3764 11.4522C25.3735 11.422 25.2831 11.4185 25.3309 11.2919C25.3786 11.1652 25.4571 11.1698 25.4876 11.0509C25.5187 10.9381 25.5225 10.7913 25.516 10.7248C25.509 10.6522 25.4377 10.6591 25.5419 10.5575C25.646 10.4559 25.5467 10.4838 25.6741 10.3739C25.8009 10.2579 25.7682 10.2305 25.839 10.2176C25.9091 10.1986 25.9769 10.2164 25.9681 10.1257C25.9593 10.0351 25.878 10.0002 25.878 10.0002C25.878 10.0002 25.769 10.1145 25.7459 10.0618C25.7234 10.0152 25.7325 9.92274 25.7474 9.89079C25.7623 9.85883 25.6673 9.807 25.7623 9.85883C25.8573 9.91067 25.8908 10.1332 25.991 9.92826C26.0912 9.7233 26.0675 9.66457 26.0789 9.59634C26.0903 9.52811 26.0838 9.52264 26.1494 9.39425C26.2149 9.26587 26.3043 9.13518 26.3043 9.13518L25.9377 9.06688C25.9377 9.06688 25.8803 8.90767 25.9333 8.89645C25.9796 8.87976 26.1334 8.98084 26.1334 8.98084L26.3813 8.93857C26.3813 8.93857 26.4943 8.86662 26.4113 8.7526C26.3283 8.63858 26.2792 8.50297 26.2792 8.50297C26.2792 8.50297 26.3757 8.3838 26.4458 8.36482C26.516 8.34583 26.764 8.24253 26.764 8.24253C26.764 8.24253 26.7473 8.25634 26.7672 8.08966C26.793 7.9224 26.9372 7.67657 26.9165 7.64806C26.8957 7.61956 26.8679 7.57954 26.8084 7.58528C26.749 7.59103 26.6659 7.53804 26.6808 7.50609C26.6957 7.47413 26.908 7.37428 26.908 7.37428C26.908 7.37428 26.9634 7.32621 26.9717 7.28879C26.9795 7.24532 27.0822 7.00351 27.0781 6.96119C27.074 6.91887 27.0574 6.87165 27.0652 6.82818C27.073 6.78471 27.0754 6.74786 27.132 6.71189C27.1885 6.67591 27.321 6.68141 27.257 6.57775C27.193 6.4741 27.0177 6.46054 27.1742 6.34167C27.3307 6.2228 27.3837 6.52279 27.4253 6.14653C27.4663 5.76422 27.5018 5.88283 27.4616 5.71585C27.4274 5.54829 27.368 5.55404 27.4662 5.45301C27.5645 5.35198 27.6509 5.19106 27.6629 5.12888C27.6749 5.0667 27.6201 5.12081 27.7745 4.85569C27.9288 4.59058 28.117 4.36491 28.0946 4.25723C28.0722 4.14956 28.1446 3.84355 28.1358 3.75286C28.127 3.66217 28.1619 3.4025 28.1619 3.4025C28.1619 3.4025 28.075 3.12409 27.9047 3.72028C27.7343 4.31647 27.7827 4.50706 27.7082 4.66683C27.6337 4.82659 27.5233 5.05084 27.4828 5.12798C27.4423 5.20513 27.3916 5.30156 27.3386 5.37381C27.2862 5.45211 27.276 5.4714 27.2503 5.57762C27.2246 5.68385 27.2371 5.62771 27.2012 5.81426C27.1712 6.00023 27.2216 6.02586 27.1222 6.1148C27.0228 6.20374 26.9956 6.16976 26.9317 6.31629C26.8679 6.46281 26.972 6.42224 26.8528 6.61683C26.7336 6.81142 26.7348 6.82351 26.6961 6.85776C26.6574 6.89201 26.5501 7.08545 26.5501 7.08545C26.5501 7.08545 26.5068 7.07134 26.6291 6.78491C26.7514 6.49849 26.8984 6.34392 26.9331 6.20631C26.9678 6.06871 26.98 5.88446 27.0021 5.80299C27.0242 5.72152 27.0246 5.84963 27.0749 5.62509C27.1252 5.40054 27.1453 5.423 27.1723 5.26784C27.1993 5.11267 27.2261 5.07957 27.2787 4.94024C27.3371 4.80034 27.4138 4.78682 27.4427 4.58876C27.4715 4.39069 27.4624 4.1719 27.4868 4.11461C27.5119 4.06337 27.6267 4.00956 27.7012 3.84979C27.7758 3.69003 27.9062 3.17703 27.9062 3.17703C27.9062 3.17703 27.9555 3.19057 27.8807 3.10016C27.806 3.00975 27.8137 3.02731 27.7632 3.00168C27.7127 2.97605 27.5414 3.06584 27.6994 2.77596C27.8574 2.48609 27.9487 2.25148 27.9487 2.25148C27.9487 2.25148 28.3758 2.01491 27.9232 2.1746C27.4701 2.32825 27.5058 2.3248 27.4309 2.35645C27.3553 2.38206 27.1723 2.35093 27.1723 2.35093C27.1723 2.35093 27.1564 2.30976 27.1636 2.26025C27.1708 2.21073 27.2144 2.04175 27.2115 2.01152C27.2086 1.98129 27.2473 1.94704 27.2176 1.94991C27.1878 1.95278 27.2354 1.94819 27.1878 1.95278C27.1403 1.95738 26.7966 2.43608 26.7603 2.49451C26.7233 2.5469 26.4317 2.81919 26.4849 2.62487C26.5375 2.42451 26.5367 2.54053 26.7572 2.15307C26.9778 1.76562 27.085 1.63321 27.1547 1.48611C27.2186 1.33959 27.2753 1.18154 27.2724 1.15132C27.2694 1.12109 27.3827 0.927071 27.1993 1.14007C27.0218 1.3525 26.8588 1.4659 26.811 1.59256C26.7633 1.71922 26.8018 1.80704 26.7767 1.85828C26.7517 1.90952 26.7689 1.90175 26.6119 2.01457C26.4548 2.12739 26.4054 2.17488 26.4054 2.17488C26.4054 2.17488 26.209 2.31591 26.4252 2.06923C26.6413 1.82255 26.6941 1.87237 26.7646 1.67028C26.835 1.4682 26.891 1.42618 26.9239 1.27043C26.9568 1.11469 26.9914 1.03812 27.0017 0.957801C27.0119 0.877481 27.2774 0.583309 27.0287 0.802633C26.7799 1.02196 26.6313 1.03632 26.49 1.31238C26.3487 1.58844 26.3499 1.60053 26.326 1.66386C26.3021 1.72719 26.2643 1.95664 26.2855 1.67998C26.3068 1.40332 26.3377 1.41254 26.4278 1.16583C26.5126 0.92575 26.5859 0.814926 26.5967 0.740653C26.6075 0.666379 26.7248 0.514684 26.5893 0.539992C26.4538 0.5653 26.6419 0.339631 26.4538 0.5653C26.2656 0.790969 26.2962 0.611044 26.3159 0.566425C26.3296 0.52238 26.6672 0.166325 26.2905 0.42852C25.9139 0.690715 25.8372 0.704231 25.724 0.898247C25.6108 1.09226 25.5644 1.10895 25.5588 1.23764C25.5539 1.37237 25.6221 1.45731 25.5214 1.59519C25.4207 1.73307 25.3099 1.89024 25.3099 1.89024C25.3099 1.89024 25.295 1.92219 25.3023 1.81164C25.3097 1.70109 25.4794 1.4711 25.3044 1.64668C25.13 1.8283 25.0187 1.91839 24.996 1.99381C24.9733 2.06924 25.0583 2.0183 24.9024 2.14321C24.7465 2.26813 24.9826 2.16597 24.7168 2.271C24.445 2.3766 24.4414 2.40136 24.3878 2.46756C24.3342 2.53377 24.3193 2.56572 24.3193 2.56572C24.3193 2.56572 24.3242 2.49202 24.3373 2.44193C24.3505 2.39184 24.3999 2.34435 24.3571 2.33628C24.3144 2.32821 24.3347 2.2286 24.1716 2.40303C24.0085 2.57746 24.0775 2.54638 23.9662 2.63647C23.8549 2.72656 23.8442 2.7398 23.7532 2.79132C23.6562 2.84341 23.7902 2.67789 23.5341 3.00777C23.278 3.33764 23.281 3.30684 23.1867 3.57225C23.0924 3.83767 22.6749 5.10459 22.6326 5.1636C22.5897 5.21656 22.6218 5.23787 22.5134 5.35819C22.4051 5.47851 22.3783 5.51161 22.3783 5.51161C22.3783 5.51161 22.6482 5.07666 22.6984 4.91315C22.7539 4.74302 22.752 4.84694 22.8418 4.4111C22.9317 3.97525 23.0122 3.81491 23.0452 3.59813C23.0723 3.38193 23.1063 3.29932 23.1929 3.07737C23.2794 2.85542 23.355 2.76878 23.4076 2.62945C23.4601 2.49013 23.518 2.34418 23.533 2.25119C23.542 2.15878 23.6095 1.9875 23.4964 2.05945C23.3834 2.1314 23.3418 2.13542 23.2477 2.27877C23.1535 2.42212 23.1595 2.42155 23.1003 2.61644C23.0417 2.81738 23.0953 2.75117 22.9194 3.1038C22.7436 3.45643 22.6789 3.71898 22.512 4.04023C22.3451 4.36148 22.3466 4.50169 22.2744 4.68563C22.2016 4.86354 22.2276 4.94645 22.0995 5.17242C21.9714 5.39839 21.9254 5.54319 21.8341 5.71677C21.7429 5.89035 21.7966 5.76311 21.6661 6.02593C21.5701 6.21218 21.5527 6.28098 21.5062 6.3587C21.4854 6.39123 21.4651 6.4298 21.4276 6.47615C21.3103 6.62784 21.3113 6.70096 21.3103 6.62784C21.3151 6.55414 21.6396 6.18714 21.6961 5.83996C21.7519 5.48673 21.7484 5.45046 21.7874 5.23311C21.8264 5.01576 21.8037 5.09118 21.8712 4.85887C21.9387 4.62655 22.0224 4.37438 22.0832 4.25866C22.144 4.14294 22.1259 4.26672 22.2501 3.9374C22.3742 3.60808 22.4452 3.47307 22.5203 3.31935C22.596 3.17168 22.6962 2.96672 22.7052 2.93535C22.7141 2.90397 22.8764 2.53435 22.6178 2.9621C22.3591 3.38986 22.2883 3.46383 22.2376 3.56026C22.187 3.6567 22.1619 3.70794 22.048 3.95694C21.9341 4.20594 21.9515 4.07611 21.7274 4.48832C21.5086 4.89392 21.49 5.01166 21.2455 5.52348C21.007 6.03473 21.0258 6.16716 20.929 6.46943C20.8263 6.77227 20.8618 6.82985 20.7599 7.01667C20.658 7.20349 20.7731 6.96658 20.5899 7.42976C20.4067 7.89294 20.4464 7.93181 20.308 8.2381C20.1697 8.54439 20.1324 8.40764 20.0813 8.80923C20.0301 9.21083 20.0942 9.25345 20.0447 9.36197C19.9952 9.4705 20.0624 9.42128 19.9375 9.49438C19.8126 9.56748 19.9365 9.36023 19.7589 9.69472C19.5812 10.0292 19.604 9.95379 19.5811 10.1513C19.5581 10.3488 19.6429 10.4809 19.5625 10.5802C19.4821 10.6795 19.4749 10.7291 19.4058 10.8212C19.3367 10.9133 19.2945 10.9113 19.248 11.05C19.2014 11.1888 19.2282 11.1557 19.1125 11.3865C18.9974 11.6234 18.9885 11.6548 18.9914 11.685C18.9943 11.7153 18.7397 11.8741 18.7336 11.9357C18.7276 11.9974 18.7246 12.0282 18.6828 12.1542C18.6469 12.2798 18.7142 12.1695 18.6242 12.3552C18.5336 12.5348 18.5896 12.4318 18.5127 12.5673C18.4364 12.709 18.3948 12.713 18.4332 12.8618C18.4716 13.0107 18.4667 13.0844 18.4488 13.1471C18.4368 13.2093 18.5004 13.1849 18.3158 13.4468C18.1311 13.7087 18.0638 13.819 17.988 13.9667C17.9123 14.1143 17.8523 14.114 17.6989 14.5133C17.5455 14.9126 17.6135 14.7473 17.5246 15.0061C17.4356 15.2649 17.3257 15.6173 17.2541 15.7463C17.1886 15.8746 17.1769 15.7537 17.133 16.0448C17.0892 16.3358 17.0862 16.3056 17.07 16.4475C17.0537 16.5895 17.0828 16.5805 16.9832 16.7915C16.8836 17.0025 16.8568 17.0356 16.8001 17.1937C16.7434 17.3517 16.7452 17.3699 16.7433 17.4128C16.7355 17.4562 16.661 17.616 16.661 17.616C16.661 17.616 12.1986 15.9543 8.67786 16.0261C5.15765 16.1041 3.69104 16.3862 3.69104 16.3862C3.69104 16.3862 7.54302 16.9475 7.80415 17.1663C7.80415 17.1663 3.79149 16.7426 3.3226 16.733C2.85429 16.7295 3.3681 16.8934 3.3681 16.8934C3.3681 16.8934 5.0823 17.1243 5.13102 17.1318C5.17974 17.1393 6.32517 17.3825 6.32517 17.3825L5.18549 17.2608L5.48999 17.4938C5.48999 17.4938 5.48804 17.5977 5.30855 17.6028C5.12906 17.608 5.2075 17.6126 4.86996 17.5964C4.52648 17.5808 4.4035 17.55 4.07064 17.5822C3.73778 17.6143 3.61295 17.6264 3.42869 17.6442C3.23848 17.6626 3.2414 17.6928 2.86693 17.729C2.49246 17.7652 2.3766 17.7459 2.29153 17.7969C2.20646 17.8478 2.06274 17.7885 2.19448 17.91C2.32621 18.0315 2.37552 18.045 2.40933 18.0845C2.44314 18.1239 2.4639 18.1524 2.40319 18.2071C2.33654 18.2624 2.2237 18.2123 2.25147 18.3133C2.27923 18.4144 2.39578 18.3787 2.38963 18.5014C2.38349 18.624 2.30495 18.6804 2.27221 18.7141C2.23352 18.7483 3.16965 18.6883 2.11454 18.8209C1.05944 18.9534 2.03883 18.9685 2.03883 18.9685L2.05461 19.1318L1.79473 19.2362C1.79473 19.2362 1.84218 19.2927 1.85095 19.3833C1.85971 19.474 1.8982 19.5618 1.81021 19.5826C1.72222 19.6033 1.66278 19.609 1.60334 19.6148C1.5439 19.6205 1.4448 19.5263 1.44577 19.6605C1.44674 19.7947 1.42345 19.864 1.45249 19.9162C1.475 19.9628 1.43758 19.9481 1.50695 20.0451C1.57633 20.1422 1.65116 20.1715 1.66003 20.2012C1.67484 20.2303 1.72103 20.3357 1.56775 20.3017C1.41447 20.2677 1.3527 20.2492 1.3527 20.2492C1.3527 20.2492 1.9014 20.1535 1.16366 20.2797C1.16366 20.2797 1.15751 20.4023 1.14972 20.4458C1.14192 20.4893 1.1121 20.5532 1.10489 20.6027C1.09768 20.6522 1.14513 20.7087 1.17602 20.7179C1.20691 20.7271 1.55517 20.73 1.60866 20.7249C1.66216 20.7197 1.97894 20.7074 1.87419 20.8029C1.7748 20.8919 1.86513 20.8953 1.71769 20.9218C1.57026 20.9483 1.64159 20.9414 1.47877 20.9327C1.31652 20.9301 1.29577 20.9016 1.2868 20.9329C1.27784 20.9643 1.22239 21.0734 1.22239 21.0734L1.42 21.2557C1.42 21.2557 1.5228 21.2641 1.534 21.3179C1.55057 21.3651 1.52085 21.368 1.52669 21.4285C1.53254 21.4889 1.55797 21.5658 1.59178 21.6052C1.62559 21.6447 1.73901 21.7008 1.64975 21.7705C1.56049 21.8401 1.48721 21.951 1.50855 21.9855C1.53047 22.0261 1.67293 22.1344 1.67293 22.1344C1.67293 22.1344 1.90046 22.1917 1.84686 22.2579C1.79327 22.3241 1.78255 22.3374 1.72067 22.38C1.65879 22.4226 2.00715 22.3645 1.62664 22.4623C1.24612 22.5601 1.23423 22.5612 1.16768 22.5555C1.10113 22.5497 1.02921 22.5506 1.00008 22.5595C0.971528 22.5744 0.906529 22.7089 0.906529 22.7089C0.906529 22.7089 13.5444 25.2828 14.1243 25.3854Z" fill="#F9B700"/>
</svg>
