<svg width="30" height="30" viewBox="0 0 30 30" fill="none">
  <path d="M14 25c0 1.6569-1.3431 3-3 3s-3-1.3431-3-3 1.3431-3 3-3 3 1.3431 3 3ZM26 25c0 1.6569-1.3431 3-3 3s-3-1.3431-3-3 1.3431-3 3-3 3 1.3431 3 3Z" fill="#F4F4F4"/>
  <path fill-rule="evenodd" clip-rule="evenodd" d="M3.8476 4.5H1v-3h3.2317a2.5 2.5 0 0 1 2.4156 1.8558L10.1524 16.5h13.6701l.7667-3.1364H14v-3h11.3225l.7667-3.1363H10v-3h16.7261c1.621 0 2.8134 1.519 2.4285 3.0936l-2.5111 10.2727A2.5 2.5 0 0 1 24.215 19.5H9.7683a2.5 2.5 0 0 1-2.4156-1.8558L3.8476 4.5Z" fill="#F4F4F4"/>
</svg>
