<svg width="30" height="30" viewBox="0 0 30 30" fill="none">
  <path fill-rule="evenodd" clip-rule="evenodd" d="M23.3332 13.1111H2.2222v1.4136c0 2.7194.6694 5.397 1.9492 7.7965a5.6892 5.6892 0 0 0 5.02 3.012h7.1727a5.6893 5.6893 0 0 0 5.02-3.012 16.568 16.568 0 0 0 1.9491-7.7965v-1.4136ZM0 10.8888v3.6359c0 3.0841.7592 6.1209 2.2106 8.8423a7.9116 7.9116 0 0 0 6.9807 4.1884h7.1728a7.9115 7.9115 0 0 0 6.9807-4.1884 18.7901 18.7901 0 0 0 2.2106-8.8423v-3.6359H0Z" fill="#F9B700"/>
  <path fill-rule="evenodd" clip-rule="evenodd" d="M0 26.4443c0-.6136.4975-1.1111 1.1111-1.1111h23.3332c.6137 0 1.1111.4975 1.1111 1.1111 0 .6137-.4974 1.1111-1.1111 1.1111H1.1111C.4975 27.5554 0 27.058 0 26.4443ZM8.8888 2C9.5025 2 10 2.4975 10 3.1111v4.4444c0 .6137-.4975 1.1111-1.1112 1.1111-.6136 0-1.111-.4974-1.111-1.111V3.111C7.7777 2.4975 8.2751 2 8.8887 2ZM13.3333 2c.6136 0 1.1111.4975 1.1111 1.1111v4.4444c0 .6137-.4975 1.1111-1.1111 1.1111-.6137 0-1.1111-.4974-1.1111-1.111V3.111c0-.6136.4974-1.1111 1.1111-1.1111ZM17.7777 2c.6136 0 1.1111.4975 1.1111 1.1111v4.4444c0 .6137-.4975 1.1111-1.1111 1.1111-.6137 0-1.1111-.4974-1.1111-1.111V3.111c0-.6136.4974-1.1111 1.1111-1.1111ZM26.971 13.3683c-.2634-.1366-.6981-.2572-1.4156-.2572v-2.2223c.9492 0 1.7645.1572 2.4386.5067.6938.3598 1.1672.8871 1.4719 1.4964.5362 1.0725.535 2.4144.534 3.4286l-.0001.1239c0 1.3916-.5254 2.8091-1.6769 3.872-1.1522 1.0636-2.8326 1.6835-4.9897 1.6835v-2.2222c1.7318 0 2.8292-.4912 3.4825-1.0942.654-.6038.9619-1.4086.9619-2.2391 0-1.1954-.0244-2.0087-.2993-2.5587-.112-.224-.2636-.3911-.5073-.5174Z" fill="#F9B700"/>
</svg>
