<svg width="44" height="44" fill="none" xmlns="http://www.w3.org/2000/svg"><path d="M14.124 25.385s-2.817 8.53-1.898 15.116l.57-3.54s-.295 3.66-.223 4.086c0 0 .366-2.165.574-2.502 0 0-.148 2.943.19 3.338l.278-.045.07.542.189-.098.11.338.151-.119.02.383.225-.144.095.357.15-.118s.065.482.15.492c.079.01.465-.149.454-.27-.012-.12.094.357.027.467 0 0 .166.045.269.115.108.069.229-.736.229-.736s-.015.654.062.647c.077-.008.312-.317.312-.317l.29-.108.066.073s.397-.24.387-.342c-.01-.103.364.47.303.843 0 0 .173.105.18 0 .009-.104 1.65-9.819 1.922-10.968a868.606 868.606 0 0 1 1.364-5.563l3.814 1.157.129-.092.26.201.1-.01.252-.067.102.253.123.03.117-.029.153.15.127-.116s.089-.13.15-.118c.061.012.226.039.232.1.005.06-.052.084-.04.205.011.12-.007.122.07.115.078-.008.039-.163.154-.155.114.007.065.115.067.134.001.018.05.086.108.068.058-.017.159-.033.17-.053.015-.02.146.029.142.054-.01.025-.046.084-.008.098a.683.683 0 0 0 .174.008c.012-.001.101-.077.126-.006.025.07.026.083.059.11.038.027.163.082.19.104.026.022.027.04.114.068.087.028.207-.032.234-.004.026.021.099.094.118.11.02.017.121.135.136.042.015-.093-.036-.192.032-.174.067.012.206-.038.232.05.026.084.033.09.038.144.005.054.024.125.055.129.03.003.065-.068.094-.077.03-.009.128.018.164.076.035.058.094.107.12.068.026-.04-.001-.202.103-.12.109.075.143.12.16.162.015.04.039.1.082.108a.335.335 0 0 0 .154-.015c.04-.017.072-.007.15.052.083.06.022.047.139.078a.31.31 0 0 1 .168.13s.05.026.11.008c.057-.018.126-.055.171-.016.046.038.123.091.172.093.048.001.102-.059.135-.092.032-.034.099-.09.135-.026.03.07.029.107.052.166.023.053.155.107.179.111.018.004.136-.02.16-.016.019.005.29.326.545.24.256-.085.332-.11.355-.052.024.059.028.284.111.337.083.053.364.044.364.044s-.065-.238.072-.068c.136.17.027.101.184.227.15.125.564.067.649.077.079.01.355.13.355.13s.004-.14.126.068l.123.214s.15.309.215.18c.066-.128.305.05.305.05l.309.092s.232-.083.24-.005c.007.08.064.238.064.238l.186.062.16-.016.062.196.4-.02.019.199.085.07.129.092.206.084s.337-.05.36.008c.024.059.166.289.166.289s.262.036.388.103c.127.067.325.072.416.143.085.07.655.138.655.138s.444.06.476.137c.025.077.426.062.426.062s.34-.014.43.1c.088.113.308.091.419.184.111.093.367.069.45.122.083.053.164.027.164.027l-.384-.25-.09-.132.132-.055s.18 0 .283.015c.103.008.207.084.282-.009.07-.086.458-.227.458-.227s.253.14.313.134l.178-.017s.109-.114.083-.191c-.025-.077-.136-.17-.084-.254.052-.085.281-.192.281-.192s.38.024.192-.062c-.188-.085-.19-.103-.364-.227-.174-.123-.29-.338-.29-.338s.01-.324.194-.037c.184.288.227.302.257.36.024.059.283.015.352.106.07.097.305.05.352.106.048.057.325.073.39.127.066.055.167.045.167.045s.196-.019-.215-.18c-.418-.161-.481-.198-.582-.25-.107-.05-.192-.12-.222-.24s-.154-.168-.017-.181c.136-.014.388-.142.503.055.12.19.247.263.346.29.105.032.54-.01.54-.01s-.025-.059-.363-.209c-.339-.15-.594-.37-.475-.381.119-.012.592.107.592.107s.127.068.16-.015c.035-.083-.005-.244-.064-.238a2.962 2.962 0 0 1-.347-.046l.337-.05s.237-.042-.076-.176c-.313-.135-.376-.165-.438-.184-.062-.018-.196-.164-.339-.211-.142-.047-.274-.175-.362-.21-.081-.034-.257-.176-.158-.21.1-.028.394-.264.394-.264s.076-.025-.13-.11c-.206-.083-.291-.093-.364-.226-.073-.134-.203-.426-.203-.426s-.182-.208-.132-.31c.05-.11.182-.159.182-.159s-.004-.042-.069-.097-.286-.296-.352-.35c-.065-.055-.162-.247-.423-.222-.256.025-.2-.023-.539-.173-.332-.151-.227-.058-.677-.362l-.45-.304s-.084-.072-.193-.146c-.11-.075-.178-.166-.261-.22-.084-.052-1.077-.402-.117-.153.966.255 1.023.225 1.318.422.301.197.896.14 1.03.285.134.152.523.01.618.184.094.174.22.223.283.26.063.036.582.248.215-.064-.372-.312-.512-.335-.843-.468-.33-.133-.255-.158-.518-.212-.263-.054-.02-.016-.709-.316s-.433-.324-.81-.306a.785.785 0 0 1-.642-.261c-.067-.073-.093-.156-.266-.261-.172-.106-.303-.032-.45-.122-.146-.09-.11-.093-.276-.199-.173-.105-.13-.292-.432-.306-.301-.014-.358.016-.5-.013-.14-.029-.017.002-.256-.176-.24-.178-.216-.18-.37-.288-.148-.108-.182-.208-.362-.209-.18 0-.184-.043-.307-.074-.123-.03.41-.284.545-.132.134.152.25.3.25.3s-.082-.054.192.121c.275.175.456.182.56.208.105.027.316-.03.383.043s.3.196.403.266c.109.069.452.14.578.206.127.067.513-.092.622.044.115.13.212.327.317.354.105.032.515-.068.602.02.086.09.279.218.407.31.13.09.297.154.297.154s.066-.129-.102-.253c-.174-.123-.2-.206-.473-.363-.273-.157-.418-.161-.765-.274-.347-.113-.114-.13-.586-.291-.477-.155-.461-.242-.647-.304-.186-.061-.293-.112-.481-.197-.188-.086-.004-.043-.59-.328-.586-.29-.502-.421-.932-.52-.43-.099-.543-.027-.915-.155-.372-.13-.4-.224-.55-.295-.145-.065-.155-.168-.238-.16-.077.007-.047-.057-.221.003-.175.06-.316.03-.316.03l-.033-.161s.095-.253-.135-.152l-.23.102-.172-.106-.012-.12-.148-.108-.288.131s.005.043-.146-.09a1.987 1.987 0 0 1-.267-.279s-.129-.09-.188-.085c-.06.006-.264-.054-.325-.073-.062-.012-.25-.097-.25-.097s-.221-.12-.274-.17c-.053-.049-.135.032-.254-.023-.114-.063.006-.062-.152-.138-.157-.077-.187-.257-.325-.14-.139.117-.092.296-.185.14-.093-.156-.105-.16-.093-.217.014-.05.127-.06.04-.095-.082-.035-.142-.09-.213-.022-.071.068.004.164-.111.09a.494.494 0 0 1-.143-.108s.087-.04.033-.095c-.053-.056.064-.086-.114-.068-.179.017-.201.092-.305.078-.103-.009-.079-.01-.14-.09-.056-.074.066-.056-.091-.132-.158-.076-.069-.085-.25-.11-.183-.025-.25.024-.415-.064-.17-.087-.147-.095-.271-.2-.118-.098.233-.064-.272-.199-.505-.134-.62-.202-.742-.233a3.963 3.963 0 0 1-.51-.195c-.17-.075-.192-.237-.399-.266-.2-.03-.28-.114-.687-.16-.406-.046-1-.281-1-.281s.092.01-.272-.157c-.364-.166-.367-.197-.444-.244-.076-.042-.28-.29-.464-.334-.184-.043-.163-.014-.296-.08-.138-.067-.198-.061-.198-.061l.159-.534s.01-.02.007-.05c-.003-.03.006-.061.037-.113.037-.052.152-.167.13-.214a.624.624 0 0 0-.07-.103l-.08-.066-.029-.119s.07-.08.097-.052c.027.028.111.032.156.058.044.027.135.036.101-.07-.028-.107.052.043-.042-.13l-.095-.174-.016-.042s.117-.023.138.005c.021.029-.034.083.021.029.055-.054.123-.091.091-.174a.731.731 0 0 1-.034-.167c-.003-.03.1-.205.1-.205s.025-.369.053-.39c.027-.02.185.055.196-.14.01-.197.022-.265.02-.296a.303.303 0 0 0-.095-.174c-.073-.072-.162-.118-.119-.171.043-.053.034-.083.064-.08.03.004.02.072.082.035.068-.037.03-.113.094-.143.07-.025.226.295.143-.075-.084-.37-.111-.404-.111-.404l.083-.07s.037-.052.065-.067c.029-.014.132 0 .166-.15.034-.143.036-.247.067-.36.031-.113-.026-.077.057-.22.088-.142.123-.085.145-.24.02-.154.018-.245-.029-.29-.046-.044-.113-.062-.07-.102.044-.047.18-.121.18-.121s-.004.134.078-.008c.088-.143.107-.01.087-.222l-.03-.302s.036-.126.057-.158c.02-.033.137-.136.147-.216.01-.08-.044-.331-.044-.331l.008-.105s.072-.068.146-.044c.074.023.165-.029.199-.111.034-.083-.098-.265-.16-.29-.062-.024.114-.182.114-.182s.098-.113.118-.151c.013-.045.055-.17.052-.2-.003-.031-.093-.034-.045-.161s.126-.122.157-.241a1.06 1.06 0 0 0 .028-.326c-.007-.073-.078-.066.026-.168.104-.101.005-.073.132-.183.127-.116.094-.144.165-.156.07-.02.138-.002.13-.092-.01-.09-.091-.126-.091-.126s-.109.114-.132.062a.266.266 0 0 1 .001-.171c.015-.032-.08-.084.015-.032.095.052.129.274.229.07.1-.206.076-.264.088-.333.011-.068.005-.073.07-.202.066-.128.155-.259.155-.259l-.366-.068s-.058-.16-.005-.17c.047-.017.2.084.2.084l.248-.042s.113-.072.03-.186-.132-.25-.132-.25.097-.12.167-.138c.07-.02.318-.122.318-.122s-.017.013.003-.153c.026-.168.17-.413.15-.442-.021-.028-.05-.068-.109-.063-.059.006-.142-.047-.127-.079.015-.032.227-.132.227-.132s.055-.048.064-.085c.008-.044.11-.285.106-.328-.004-.042-.02-.09-.013-.133.008-.043.01-.08.067-.116.056-.036.189-.03.125-.134-.064-.104-.24-.117-.083-.236.157-.12.21.18.251-.195.041-.383.077-.264.037-.431-.035-.168-.094-.162.004-.263a.883.883 0 0 0 .197-.324c.012-.062-.043-.008.111-.273.155-.265.343-.491.32-.599-.022-.107.05-.413.042-.504-.009-.09.026-.35.026-.35s-.087-.279-.257.317c-.17.596-.122.787-.197.947-.074.16-.185.384-.225.461-.04.077-.091.174-.144.246a.467.467 0 0 0-.089.204c-.025.106-.013.05-.049.236-.03.186.02.212-.079.3-.1.09-.126.056-.19.202-.064.147.04.106-.08.3-.118.195-.117.208-.156.242a1.7 1.7 0 0 0-.146.227s-.043-.014.08-.3c.121-.287.268-.441.303-.579.035-.137.047-.322.07-.403.021-.081.022.047.072-.178.05-.224.07-.202.097-.357.027-.155.054-.188.107-.328.058-.14.135-.153.164-.351.028-.198.02-.417.044-.474.025-.052.14-.105.214-.265.075-.16.205-.673.205-.673s.05.014-.025-.077c-.075-.09-.067-.073-.118-.098-.05-.026-.222.064-.064-.226.158-.29.25-.525.25-.525s.427-.236-.026-.076c-.453.153-.417.15-.492.181-.076.026-.259-.005-.259-.005s-.016-.041-.008-.09c.007-.05.05-.22.047-.25-.002-.03.036-.064.007-.061l-.03.003c-.048.004-.391.483-.428.542-.037.052-.328.324-.275.13.053-.2.052-.084.272-.472.22-.387.328-.52.398-.667.064-.146.12-.304.117-.335-.003-.03.11-.224-.073-.01-.177.212-.34.325-.388.452-.048.126-.01.214-.034.265-.025.052-.008.044-.165.157-.157.112-.207.16-.207.16s-.196.14.02-.106.27-.197.34-.399.126-.244.159-.4c.033-.155.067-.232.078-.312.01-.08.275-.375.027-.155-.25.219-.398.233-.539.51-.141.275-.14.288-.164.35-.024.064-.062.294-.04.017.02-.277.052-.267.142-.514.085-.24.158-.351.169-.425.01-.075.128-.226-.008-.201-.135.025.053-.2-.135.025-.188.226-.158.046-.138.001.014-.044.351-.4-.025-.137-.377.262-.454.275-.567.47-.113.193-.16.21-.165.339-.005.134.063.22-.038.357-.1.138-.211.295-.211.295s-.015.032-.008-.078c.008-.11.177-.34.002-.165-.174.181-.285.271-.308.347-.023.075.062.024-.094.15-.155.124.08.022-.185.127-.272.106-.276.13-.33.197a.566.566 0 0 0-.068.098s.005-.074.018-.124c.014-.05.063-.098.02-.106-.043-.008-.022-.107-.185.067s-.095.143-.206.233c-.111.09-.122.104-.213.155-.097.052.037-.113-.219.217s-.253.299-.347.564c-.095.266-.512 1.533-.554 1.592-.043.053-.011.074-.12.194-.108.12-.135.154-.135.154s.27-.435.32-.599c.056-.17.054-.066.144-.502s.17-.596.203-.813c.027-.216.061-.299.148-.52.086-.223.162-.31.215-.449.052-.139.11-.285.125-.378.009-.092.076-.263-.037-.192-.113.072-.154.076-.248.22-.095.143-.088.143-.148.337-.058.201-.005.135-.18.488-.176.352-.241.615-.408.936-.167.321-.165.462-.238.646-.072.178-.046.26-.175.486-.128.226-.174.371-.265.545-.091.173-.037.046-.168.309-.096.186-.113.255-.16.333-.02.032-.04.07-.078.117-.118.152-.117.225-.118.152.005-.074.33-.44.386-.788.056-.353.052-.39.091-.607.04-.217.017-.142.084-.374.068-.232.151-.485.212-.6.061-.116.043.008.167-.322.124-.329.195-.464.27-.618.076-.147.176-.352.185-.384.01-.031.171-.4-.087.027-.259.428-.33.502-.38.598-.051.097-.076.148-.19.397-.114.249-.096.12-.32.531-.22.406-.238.524-.483 1.035-.238.512-.22.644-.316.946-.103.303-.067.36-.17.548-.101.186.014-.05-.17.413-.182.463-.143.502-.281.808-.138.306-.176.17-.227.571-.05.402.013.444-.036.553-.05.108.017.06-.108.132-.124.073 0-.134-.178.2-.178.335-.155.26-.178.457-.023.198.062.33-.018.43-.08.099-.088.148-.157.24-.07.092-.111.09-.158.229s-.02.106-.136.336c-.115.237-.123.269-.12.299.002.03-.252.19-.258.25a.784.784 0 0 1-.051.22c-.036.125.031.014-.059.2-.09.18-.034.077-.111.212-.077.142-.118.146-.08.295.039.149.034.222.016.285-.012.062.051.038-.133.3a3.897 3.897 0 0 0-.328.52c-.076.147-.136.147-.29.546-.152.4-.085.234-.173.493-.09.259-.2.611-.27.74-.066.129-.078.008-.122.299-.044.29-.047.26-.063.402-.016.143.013.134-.087.345-.1.21-.126.244-.183.402-.057.158-.055.176-.057.219-.008.043-.082.203-.082.203s-4.462-1.662-7.983-1.59c-3.52.078-4.987.36-4.987.36s3.852.562 4.113.78c0 0-4.013-.423-4.481-.433-.469-.003.045.16.045.16s1.714.231 1.763.239c.049.007 1.194.25 1.194.25l-1.14-.121.305.233s-.002.104-.181.109c-.18.005-.102.01-.439-.007-.344-.015-.466-.046-.8-.014l-.641.062c-.19.019-.188.049-.562.085-.375.036-.49.017-.575.068-.086.05-.23-.009-.098.113s.182.135.215.174c.034.04.055.068-.006.123-.066.055-.18.005-.152.106.028.101.145.066.139.188-.007.123-.085.18-.118.213-.038.034.898-.026-.157.107-1.056.132-.076.147-.076.147l.016.164-.26.104s.047.057.056.147c.009.091.047.179-.04.2-.089.02-.148.026-.208.032-.06.006-.158-.089-.157.046 0 .134-.023.203.006.255.023.047-.014.032.055.13.07.096.144.126.153.155.015.03.061.135-.092.1-.154-.033-.215-.052-.215-.052s.548-.095-.19.03c0 0-.005.123-.013.167-.008.043-.038.107-.045.157-.007.05.04.106.071.115.03.01.38.012.433.007.053-.005.37-.018.265.078-.1.089-.009.092-.156.119-.148.026-.076.02-.24.01-.161-.002-.182-.03-.191 0-.01.032-.065.141-.065.141l.198.183s.103.008.114.062c.017.047-.013.05-.007.11.006.06.031.138.065.177.034.04.147.096.058.165-.09.07-.163.181-.141.215.021.041.164.15.164.15s.227.057.174.123c-.054.066-.064.08-.126.122-.062.043.286-.015-.094.082-.38.098-.393.1-.46.093A.588.588 0 0 0 1 22.56c-.028.014-.093.149-.093.149s12.637 2.574 13.217 2.676Z" fill="#F44C86"/></svg>