<svg width="180" height="180" fill="none" xmlns="http://www.w3.org/2000/svg"><rect width="3.273" height="3.273" rx="1.636" fill="#F4F4F4" fill-opacity=".1"/><rect x="19.637" width="3.273" height="3.273" rx="1.636" fill="#F4F4F4" fill-opacity=".1"/><rect x="39.273" width="3.273" height="3.273" rx="1.636" fill="#F4F4F4" fill-opacity=".1"/><rect x="58.909" width="3.273" height="3.273" rx="1.636" fill="#F4F4F4" fill-opacity=".1"/><rect x="78.545" width="3.273" height="3.273" rx="1.636" fill="#F4F4F4" fill-opacity=".1"/><rect x="98.182" width="3.273" height="3.273" rx="1.636" fill="#F4F4F4" fill-opacity=".1"/><rect x="117.818" width="3.273" height="3.273" rx="1.636" fill="#F4F4F4" fill-opacity=".1"/><rect x="137.454" width="3.273" height="3.273" rx="1.636" fill="#F4F4F4" fill-opacity=".1"/><rect x="157.091" width="3.273" height="3.273" rx="1.636" fill="#F4F4F4" fill-opacity=".1"/><rect x="176.727" width="3.273" height="3.273" rx="1.636" fill="#F4F4F4" fill-opacity=".1"/><rect y="19.637" width="3.273" height="3.273" rx="1.636" fill="#F4F4F4" fill-opacity=".1"/><rect x="19.637" y="19.637" width="3.273" height="3.273" rx="1.636" fill="#F4F4F4" fill-opacity=".1"/><rect x="39.273" y="19.637" width="3.273" height="3.273" rx="1.636" fill="#F4F4F4" fill-opacity=".1"/><rect x="58.909" y="19.637" width="3.273" height="3.273" rx="1.636" fill="#F4F4F4" fill-opacity=".1"/><rect x="78.545" y="19.637" width="3.273" height="3.273" rx="1.636" fill="#F4F4F4" fill-opacity=".1"/><rect x="98.182" y="19.637" width="3.273" height="3.273" rx="1.636" fill="#F4F4F4" fill-opacity=".1"/><rect x="117.818" y="19.637" width="3.273" height="3.273" rx="1.636" fill="#F4F4F4" fill-opacity=".1"/><rect x="137.454" y="19.637" width="3.273" height="3.273" rx="1.636" fill="#F4F4F4" fill-opacity=".1"/><rect x="157.091" y="19.637" width="3.273" height="3.273" rx="1.636" fill="#F4F4F4" fill-opacity=".1"/><rect x="176.727" y="19.637" width="3.273" height="3.273" rx="1.636" fill="#F4F4F4" fill-opacity=".1"/><rect y="39.273" width="3.273" height="3.273" rx="1.636" fill="#F4F4F4" fill-opacity=".1"/><rect x="19.637" y="39.273" width="3.273" height="3.273" rx="1.636" fill="#F4F4F4" fill-opacity=".1"/><rect x="39.273" y="39.273" width="3.273" height="3.273" rx="1.636" fill="#F4F4F4" fill-opacity=".1"/><rect x="58.909" y="39.273" width="3.273" height="3.273" rx="1.636" fill="#F4F4F4" fill-opacity=".1"/><rect x="78.545" y="39.273" width="3.273" height="3.273" rx="1.636" fill="#F4F4F4" fill-opacity=".1"/><rect x="98.182" y="39.273" width="3.273" height="3.273" rx="1.636" fill="#F4F4F4" fill-opacity=".1"/><rect x="117.818" y="39.273" width="3.273" height="3.273" rx="1.636" fill="#F4F4F4" fill-opacity=".1"/><rect x="137.454" y="39.273" width="3.273" height="3.273" rx="1.636" fill="#F4F4F4" fill-opacity=".1"/><rect x="157.091" y="39.273" width="3.273" height="3.273" rx="1.636" fill="#F4F4F4" fill-opacity=".1"/><rect x="176.727" y="39.273" width="3.273" height="3.273" rx="1.636" fill="#F4F4F4" fill-opacity=".1"/><rect y="58.909" width="3.273" height="3.273" rx="1.636" fill="#F4F4F4" fill-opacity=".1"/><rect x="19.637" y="58.909" width="3.273" height="3.273" rx="1.636" fill="#F4F4F4" fill-opacity=".1"/><rect x="39.273" y="58.909" width="3.273" height="3.273" rx="1.636" fill="#F4F4F4" fill-opacity=".1"/><rect x="58.909" y="58.909" width="3.273" height="3.273" rx="1.636" fill="#F4F4F4" fill-opacity=".1"/><rect x="78.545" y="58.909" width="3.273" height="3.273" rx="1.636" fill="#F4F4F4" fill-opacity=".1"/><rect x="98.182" y="58.909" width="3.273" height="3.273" rx="1.636" fill="#F4F4F4" fill-opacity=".1"/><rect x="117.818" y="58.909" width="3.273" height="3.273" rx="1.636" fill="#F4F4F4" fill-opacity=".1"/><rect x="137.454" y="58.909" width="3.273" height="3.273" rx="1.636" fill="#F4F4F4" fill-opacity=".1"/><rect x="157.091" y="58.909" width="3.273" height="3.273" rx="1.636" fill="#F4F4F4" fill-opacity=".1"/><rect x="176.727" y="58.909" width="3.273" height="3.273" rx="1.636" fill="#F4F4F4" fill-opacity=".1"/><rect y="78.545" width="3.273" height="3.273" rx="1.636" fill="#F4F4F4" fill-opacity=".1"/><rect x="19.637" y="78.545" width="3.273" height="3.273" rx="1.636" fill="#F4F4F4" fill-opacity=".1"/><rect x="39.273" y="78.545" width="3.273" height="3.273" rx="1.636" fill="#F4F4F4" fill-opacity=".1"/><rect x="58.909" y="78.545" width="3.273" height="3.273" rx="1.636" fill="#F4F4F4" fill-opacity=".1"/><rect x="78.545" y="78.545" width="3.273" height="3.273" rx="1.636" fill="#F4F4F4" fill-opacity=".1"/><rect x="98.182" y="78.545" width="3.273" height="3.273" rx="1.636" fill="#F4F4F4" fill-opacity=".1"/><rect x="117.818" y="78.545" width="3.273" height="3.273" rx="1.636" fill="#F4F4F4" fill-opacity=".1"/><rect x="137.454" y="78.545" width="3.273" height="3.273" rx="1.636" fill="#F4F4F4" fill-opacity=".1"/><rect x="157.091" y="78.545" width="3.273" height="3.273" rx="1.636" fill="#F4F4F4" fill-opacity=".1"/><rect x="176.727" y="78.545" width="3.273" height="3.273" rx="1.636" fill="#F4F4F4" fill-opacity=".1"/><rect y="98.182" width="3.273" height="3.273" rx="1.636" fill="#F4F4F4" fill-opacity=".1"/><rect x="19.637" y="98.182" width="3.273" height="3.273" rx="1.636" fill="#F4F4F4" fill-opacity=".1"/><rect x="39.273" y="98.182" width="3.273" height="3.273" rx="1.636" fill="#F4F4F4" fill-opacity=".1"/><rect x="58.909" y="98.182" width="3.273" height="3.273" rx="1.636" fill="#F4F4F4" fill-opacity=".1"/><rect x="78.545" y="98.182" width="3.273" height="3.273" rx="1.636" fill="#F4F4F4" fill-opacity=".1"/><rect x="98.182" y="98.182" width="3.273" height="3.273" rx="1.636" fill="#F4F4F4" fill-opacity=".1"/><rect x="117.818" y="98.182" width="3.273" height="3.273" rx="1.636" fill="#F4F4F4" fill-opacity=".1"/><rect x="137.454" y="98.182" width="3.273" height="3.273" rx="1.636" fill="#F4F4F4" fill-opacity=".1"/><rect x="157.091" y="98.182" width="3.273" height="3.273" rx="1.636" fill="#F4F4F4" fill-opacity=".1"/><rect x="176.727" y="98.182" width="3.273" height="3.273" rx="1.636" fill="#F4F4F4" fill-opacity=".1"/><rect y="117.818" width="3.273" height="3.273" rx="1.636" fill="#F4F4F4" fill-opacity=".1"/><rect x="19.637" y="117.818" width="3.273" height="3.273" rx="1.636" fill="#F4F4F4" fill-opacity=".1"/><rect x="39.273" y="117.818" width="3.273" height="3.273" rx="1.636" fill="#F4F4F4" fill-opacity=".1"/><rect x="58.909" y="117.818" width="3.273" height="3.273" rx="1.636" fill="#F4F4F4" fill-opacity=".1"/><rect x="78.545" y="117.818" width="3.273" height="3.273" rx="1.636" fill="#F4F4F4" fill-opacity=".1"/><rect x="98.182" y="117.818" width="3.273" height="3.273" rx="1.636" fill="#F4F4F4" fill-opacity=".1"/><rect x="117.818" y="117.818" width="3.273" height="3.273" rx="1.636" fill="#F4F4F4" fill-opacity=".1"/><rect x="137.454" y="117.818" width="3.273" height="3.273" rx="1.636" fill="#F4F4F4" fill-opacity=".1"/><rect x="157.091" y="117.818" width="3.273" height="3.273" rx="1.636" fill="#F4F4F4" fill-opacity=".1"/><rect x="176.727" y="117.818" width="3.273" height="3.273" rx="1.636" fill="#F4F4F4" fill-opacity=".1"/><rect y="137.454" width="3.273" height="3.273" rx="1.636" fill="#F4F4F4" fill-opacity=".1"/><rect x="19.637" y="137.454" width="3.273" height="3.273" rx="1.636" fill="#F4F4F4" fill-opacity=".1"/><rect x="39.273" y="137.454" width="3.273" height="3.273" rx="1.636" fill="#F4F4F4" fill-opacity=".1"/><rect x="58.909" y="137.454" width="3.273" height="3.273" rx="1.636" fill="#F4F4F4" fill-opacity=".1"/><rect x="78.545" y="137.454" width="3.273" height="3.273" rx="1.636" fill="#F4F4F4" fill-opacity=".1"/><rect x="98.182" y="137.454" width="3.273" height="3.273" rx="1.636" fill="#F4F4F4" fill-opacity=".1"/><rect x="117.818" y="137.454" width="3.273" height="3.273" rx="1.636" fill="#F4F4F4" fill-opacity=".1"/><rect x="137.454" y="137.454" width="3.273" height="3.273" rx="1.636" fill="#F4F4F4" fill-opacity=".1"/><rect x="157.091" y="137.454" width="3.273" height="3.273" rx="1.636" fill="#F4F4F4" fill-opacity=".1"/><rect x="176.727" y="137.454" width="3.273" height="3.273" rx="1.636" fill="#F4F4F4" fill-opacity=".1"/><rect y="157.091" width="3.273" height="3.273" rx="1.636" fill="#F4F4F4" fill-opacity=".1"/><rect x="19.637" y="157.091" width="3.273" height="3.273" rx="1.636" fill="#F4F4F4" fill-opacity=".1"/><rect x="39.273" y="157.091" width="3.273" height="3.273" rx="1.636" fill="#F4F4F4" fill-opacity=".1"/><rect x="58.909" y="157.091" width="3.273" height="3.273" rx="1.636" fill="#F4F4F4" fill-opacity=".1"/><rect x="78.545" y="157.091" width="3.273" height="3.273" rx="1.636" fill="#F4F4F4" fill-opacity=".1"/><rect x="98.182" y="157.091" width="3.273" height="3.273" rx="1.636" fill="#F4F4F4" fill-opacity=".1"/><rect x="117.818" y="157.091" width="3.273" height="3.273" rx="1.636" fill="#F4F4F4" fill-opacity=".1"/><rect x="137.454" y="157.091" width="3.273" height="3.273" rx="1.636" fill="#F4F4F4" fill-opacity=".1"/><rect x="157.091" y="157.091" width="3.273" height="3.273" rx="1.636" fill="#F4F4F4" fill-opacity=".1"/><rect x="176.727" y="157.091" width="3.273" height="3.273" rx="1.636" fill="#F4F4F4" fill-opacity=".1"/><rect y="176.727" width="3.273" height="3.273" rx="1.636" fill="#F4F4F4" fill-opacity=".1"/><rect x="19.637" y="176.727" width="3.273" height="3.273" rx="1.636" fill="#F4F4F4" fill-opacity=".1"/><rect x="39.273" y="176.727" width="3.273" height="3.273" rx="1.636" fill="#F4F4F4" fill-opacity=".1"/><rect x="58.909" y="176.727" width="3.273" height="3.273" rx="1.636" fill="#F4F4F4" fill-opacity=".1"/><rect x="78.545" y="176.727" width="3.273" height="3.273" rx="1.636" fill="#F4F4F4" fill-opacity=".1"/><rect x="98.182" y="176.727" width="3.273" height="3.273" rx="1.636" fill="#F4F4F4" fill-opacity=".1"/><rect x="117.818" y="176.727" width="3.273" height="3.273" rx="1.636" fill="#F4F4F4" fill-opacity=".1"/><rect x="137.454" y="176.727" width="3.273" height="3.273" rx="1.636" fill="#F4F4F4" fill-opacity=".1"/><rect x="157.091" y="176.727" width="3.273" height="3.273" rx="1.636" fill="#F4F4F4" fill-opacity=".1"/><rect x="176.727" y="176.727" width="3.273" height="3.273" rx="1.636" fill="#F4F4F4" fill-opacity=".1"/></svg>