<svg width="180" height="180" viewBox="0 0 180 180" fill="none" xmlns="http://www.w3.org/2000/svg">
<rect width="3.27273" height="3.27272" rx="1.63636" fill="#F4F4F4" fill-opacity="0.1"/>
<rect x="19.6365" width="3.27273" height="3.27272" rx="1.63636" fill="#F4F4F4" fill-opacity="0.1"/>
<rect x="39.2728" width="3.27273" height="3.27272" rx="1.63636" fill="#F4F4F4" fill-opacity="0.1"/>
<rect x="58.9091" width="3.27273" height="3.27272" rx="1.63636" fill="#F4F4F4" fill-opacity="0.1"/>
<rect x="78.5454" width="3.27273" height="3.27272" rx="1.63636" fill="#F4F4F4" fill-opacity="0.1"/>
<rect x="98.1819" width="3.27273" height="3.27272" rx="1.63636" fill="#F4F4F4" fill-opacity="0.1"/>
<rect x="117.818" width="3.27273" height="3.27272" rx="1.63636" fill="#F4F4F4" fill-opacity="0.1"/>
<rect x="137.454" width="3.27273" height="3.27272" rx="1.63636" fill="#F4F4F4" fill-opacity="0.1"/>
<rect x="157.091" width="3.27273" height="3.27272" rx="1.63636" fill="#F4F4F4" fill-opacity="0.1"/>
<rect x="176.727" width="3.27273" height="3.27272" rx="1.63636" fill="#F4F4F4" fill-opacity="0.1"/>
<rect y="19.6367" width="3.27273" height="3.27272" rx="1.63636" fill="#F4F4F4" fill-opacity="0.1"/>
<rect x="19.6365" y="19.6367" width="3.27273" height="3.27272" rx="1.63636" fill="#F4F4F4" fill-opacity="0.1"/>
<rect x="39.2728" y="19.6367" width="3.27273" height="3.27272" rx="1.63636" fill="#F4F4F4" fill-opacity="0.1"/>
<rect x="58.9091" y="19.6367" width="3.27273" height="3.27272" rx="1.63636" fill="#F4F4F4" fill-opacity="0.1"/>
<rect x="78.5454" y="19.6367" width="3.27273" height="3.27272" rx="1.63636" fill="#F4F4F4" fill-opacity="0.1"/>
<rect x="98.1819" y="19.6367" width="3.27273" height="3.27272" rx="1.63636" fill="#F4F4F4" fill-opacity="0.1"/>
<rect x="117.818" y="19.6367" width="3.27273" height="3.27272" rx="1.63636" fill="#F4F4F4" fill-opacity="0.1"/>
<rect x="137.454" y="19.6367" width="3.27273" height="3.27272" rx="1.63636" fill="#F4F4F4" fill-opacity="0.1"/>
<rect x="157.091" y="19.6367" width="3.27273" height="3.27272" rx="1.63636" fill="#F4F4F4" fill-opacity="0.1"/>
<rect x="176.727" y="19.6367" width="3.27273" height="3.27272" rx="1.63636" fill="#F4F4F4" fill-opacity="0.1"/>
<rect y="39.2727" width="3.27273" height="3.27272" rx="1.63636" fill="#F4F4F4" fill-opacity="0.1"/>
<rect x="19.6365" y="39.2727" width="3.27273" height="3.27272" rx="1.63636" fill="#F4F4F4" fill-opacity="0.1"/>
<rect x="39.2728" y="39.2727" width="3.27273" height="3.27272" rx="1.63636" fill="#F4F4F4" fill-opacity="0.1"/>
<rect x="58.9091" y="39.2727" width="3.27273" height="3.27272" rx="1.63636" fill="#F4F4F4" fill-opacity="0.1"/>
<rect x="78.5454" y="39.2727" width="3.27273" height="3.27272" rx="1.63636" fill="#F4F4F4" fill-opacity="0.1"/>
<rect x="98.1819" y="39.2727" width="3.27273" height="3.27272" rx="1.63636" fill="#F4F4F4" fill-opacity="0.1"/>
<rect x="117.818" y="39.2727" width="3.27273" height="3.27272" rx="1.63636" fill="#F4F4F4" fill-opacity="0.1"/>
<rect x="137.454" y="39.2727" width="3.27273" height="3.27272" rx="1.63636" fill="#F4F4F4" fill-opacity="0.1"/>
<rect x="157.091" y="39.2727" width="3.27273" height="3.27272" rx="1.63636" fill="#F4F4F4" fill-opacity="0.1"/>
<rect x="176.727" y="39.2727" width="3.27273" height="3.27272" rx="1.63636" fill="#F4F4F4" fill-opacity="0.1"/>
<rect y="58.9089" width="3.27273" height="3.27272" rx="1.63636" fill="#F4F4F4" fill-opacity="0.1"/>
<rect x="19.6365" y="58.9089" width="3.27273" height="3.27272" rx="1.63636" fill="#F4F4F4" fill-opacity="0.1"/>
<rect x="39.2728" y="58.9089" width="3.27273" height="3.27272" rx="1.63636" fill="#F4F4F4" fill-opacity="0.1"/>
<rect x="58.9091" y="58.9089" width="3.27273" height="3.27272" rx="1.63636" fill="#F4F4F4" fill-opacity="0.1"/>
<rect x="78.5454" y="58.9089" width="3.27273" height="3.27272" rx="1.63636" fill="#F4F4F4" fill-opacity="0.1"/>
<rect x="98.1819" y="58.9089" width="3.27273" height="3.27272" rx="1.63636" fill="#F4F4F4" fill-opacity="0.1"/>
<rect x="117.818" y="58.9089" width="3.27273" height="3.27272" rx="1.63636" fill="#F4F4F4" fill-opacity="0.1"/>
<rect x="137.454" y="58.9089" width="3.27273" height="3.27272" rx="1.63636" fill="#F4F4F4" fill-opacity="0.1"/>
<rect x="157.091" y="58.9089" width="3.27273" height="3.27272" rx="1.63636" fill="#F4F4F4" fill-opacity="0.1"/>
<rect x="176.727" y="58.9089" width="3.27273" height="3.27272" rx="1.63636" fill="#F4F4F4" fill-opacity="0.1"/>
<rect y="78.5452" width="3.27273" height="3.27272" rx="1.63636" fill="#F4F4F4" fill-opacity="0.1"/>
<rect x="19.6365" y="78.5452" width="3.27273" height="3.27272" rx="1.63636" fill="#F4F4F4" fill-opacity="0.1"/>
<rect x="39.2728" y="78.5452" width="3.27273" height="3.27272" rx="1.63636" fill="#F4F4F4" fill-opacity="0.1"/>
<rect x="58.9091" y="78.5452" width="3.27273" height="3.27272" rx="1.63636" fill="#F4F4F4" fill-opacity="0.1"/>
<rect x="78.5454" y="78.5452" width="3.27273" height="3.27272" rx="1.63636" fill="#F4F4F4" fill-opacity="0.1"/>
<rect x="98.1819" y="78.5452" width="3.27273" height="3.27272" rx="1.63636" fill="#F4F4F4" fill-opacity="0.1"/>
<rect x="117.818" y="78.5452" width="3.27273" height="3.27272" rx="1.63636" fill="#F4F4F4" fill-opacity="0.1"/>
<rect x="137.454" y="78.5452" width="3.27273" height="3.27272" rx="1.63636" fill="#F4F4F4" fill-opacity="0.1"/>
<rect x="157.091" y="78.5452" width="3.27273" height="3.27272" rx="1.63636" fill="#F4F4F4" fill-opacity="0.1"/>
<rect x="176.727" y="78.5452" width="3.27273" height="3.27272" rx="1.63636" fill="#F4F4F4" fill-opacity="0.1"/>
<rect y="98.1821" width="3.27273" height="3.27272" rx="1.63636" fill="#F4F4F4" fill-opacity="0.1"/>
<rect x="19.6365" y="98.1821" width="3.27273" height="3.27272" rx="1.63636" fill="#F4F4F4" fill-opacity="0.1"/>
<rect x="39.2728" y="98.1821" width="3.27273" height="3.27272" rx="1.63636" fill="#F4F4F4" fill-opacity="0.1"/>
<rect x="58.9091" y="98.1821" width="3.27273" height="3.27272" rx="1.63636" fill="#F4F4F4" fill-opacity="0.1"/>
<rect x="78.5454" y="98.1821" width="3.27273" height="3.27272" rx="1.63636" fill="#F4F4F4" fill-opacity="0.1"/>
<rect x="98.1819" y="98.1821" width="3.27273" height="3.27272" rx="1.63636" fill="#F4F4F4" fill-opacity="0.1"/>
<rect x="117.818" y="98.1821" width="3.27273" height="3.27272" rx="1.63636" fill="#F4F4F4" fill-opacity="0.1"/>
<rect x="137.454" y="98.1821" width="3.27273" height="3.27272" rx="1.63636" fill="#F4F4F4" fill-opacity="0.1"/>
<rect x="157.091" y="98.1821" width="3.27273" height="3.27272" rx="1.63636" fill="#F4F4F4" fill-opacity="0.1"/>
<rect x="176.727" y="98.1821" width="3.27273" height="3.27272" rx="1.63636" fill="#F4F4F4" fill-opacity="0.1"/>
<rect y="117.818" width="3.27273" height="3.27272" rx="1.63636" fill="#F4F4F4" fill-opacity="0.1"/>
<rect x="19.6365" y="117.818" width="3.27273" height="3.27272" rx="1.63636" fill="#F4F4F4" fill-opacity="0.1"/>
<rect x="39.2728" y="117.818" width="3.27273" height="3.27272" rx="1.63636" fill="#F4F4F4" fill-opacity="0.1"/>
<rect x="58.9091" y="117.818" width="3.27273" height="3.27272" rx="1.63636" fill="#F4F4F4" fill-opacity="0.1"/>
<rect x="78.5454" y="117.818" width="3.27273" height="3.27272" rx="1.63636" fill="#F4F4F4" fill-opacity="0.1"/>
<rect x="98.1819" y="117.818" width="3.27273" height="3.27272" rx="1.63636" fill="#F4F4F4" fill-opacity="0.1"/>
<rect x="117.818" y="117.818" width="3.27273" height="3.27272" rx="1.63636" fill="#F4F4F4" fill-opacity="0.1"/>
<rect x="137.454" y="117.818" width="3.27273" height="3.27272" rx="1.63636" fill="#F4F4F4" fill-opacity="0.1"/>
<rect x="157.091" y="117.818" width="3.27273" height="3.27272" rx="1.63636" fill="#F4F4F4" fill-opacity="0.1"/>
<rect x="176.727" y="117.818" width="3.27273" height="3.27272" rx="1.63636" fill="#F4F4F4" fill-opacity="0.1"/>
<rect y="137.454" width="3.27273" height="3.27272" rx="1.63636" fill="#F4F4F4" fill-opacity="0.1"/>
<rect x="19.6365" y="137.454" width="3.27273" height="3.27272" rx="1.63636" fill="#F4F4F4" fill-opacity="0.1"/>
<rect x="39.2728" y="137.454" width="3.27273" height="3.27272" rx="1.63636" fill="#F4F4F4" fill-opacity="0.1"/>
<rect x="58.9091" y="137.454" width="3.27273" height="3.27272" rx="1.63636" fill="#F4F4F4" fill-opacity="0.1"/>
<rect x="78.5454" y="137.454" width="3.27273" height="3.27272" rx="1.63636" fill="#F4F4F4" fill-opacity="0.1"/>
<rect x="98.1819" y="137.454" width="3.27273" height="3.27272" rx="1.63636" fill="#F4F4F4" fill-opacity="0.1"/>
<rect x="117.818" y="137.454" width="3.27273" height="3.27272" rx="1.63636" fill="#F4F4F4" fill-opacity="0.1"/>
<rect x="137.454" y="137.454" width="3.27273" height="3.27272" rx="1.63636" fill="#F4F4F4" fill-opacity="0.1"/>
<rect x="157.091" y="137.454" width="3.27273" height="3.27272" rx="1.63636" fill="#F4F4F4" fill-opacity="0.1"/>
<rect x="176.727" y="137.454" width="3.27273" height="3.27272" rx="1.63636" fill="#F4F4F4" fill-opacity="0.1"/>
<rect y="157.091" width="3.27273" height="3.27272" rx="1.63636" fill="#F4F4F4" fill-opacity="0.1"/>
<rect x="19.6365" y="157.091" width="3.27273" height="3.27272" rx="1.63636" fill="#F4F4F4" fill-opacity="0.1"/>
<rect x="39.2728" y="157.091" width="3.27273" height="3.27272" rx="1.63636" fill="#F4F4F4" fill-opacity="0.1"/>
<rect x="58.9091" y="157.091" width="3.27273" height="3.27272" rx="1.63636" fill="#F4F4F4" fill-opacity="0.1"/>
<rect x="78.5454" y="157.091" width="3.27273" height="3.27272" rx="1.63636" fill="#F4F4F4" fill-opacity="0.1"/>
<rect x="98.1819" y="157.091" width="3.27273" height="3.27272" rx="1.63636" fill="#F4F4F4" fill-opacity="0.1"/>
<rect x="117.818" y="157.091" width="3.27273" height="3.27272" rx="1.63636" fill="#F4F4F4" fill-opacity="0.1"/>
<rect x="137.454" y="157.091" width="3.27273" height="3.27272" rx="1.63636" fill="#F4F4F4" fill-opacity="0.1"/>
<rect x="157.091" y="157.091" width="3.27273" height="3.27272" rx="1.63636" fill="#F4F4F4" fill-opacity="0.1"/>
<rect x="176.727" y="157.091" width="3.27273" height="3.27272" rx="1.63636" fill="#F4F4F4" fill-opacity="0.1"/>
<rect y="176.727" width="3.27273" height="3.27272" rx="1.63636" fill="#F4F4F4" fill-opacity="0.1"/>
<rect x="19.6365" y="176.727" width="3.27273" height="3.27272" rx="1.63636" fill="#F4F4F4" fill-opacity="0.1"/>
<rect x="39.2728" y="176.727" width="3.27273" height="3.27272" rx="1.63636" fill="#F4F4F4" fill-opacity="0.1"/>
<rect x="58.9091" y="176.727" width="3.27273" height="3.27272" rx="1.63636" fill="#F4F4F4" fill-opacity="0.1"/>
<rect x="78.5454" y="176.727" width="3.27273" height="3.27272" rx="1.63636" fill="#F4F4F4" fill-opacity="0.1"/>
<rect x="98.1819" y="176.727" width="3.27273" height="3.27272" rx="1.63636" fill="#F4F4F4" fill-opacity="0.1"/>
<rect x="117.818" y="176.727" width="3.27273" height="3.27272" rx="1.63636" fill="#F4F4F4" fill-opacity="0.1"/>
<rect x="137.454" y="176.727" width="3.27273" height="3.27272" rx="1.63636" fill="#F4F4F4" fill-opacity="0.1"/>
<rect x="157.091" y="176.727" width="3.27273" height="3.27272" rx="1.63636" fill="#F4F4F4" fill-opacity="0.1"/>
<rect x="176.727" y="176.727" width="3.27273" height="3.27272" rx="1.63636" fill="#F4F4F4" fill-opacity="0.1"/>
</svg>
