<svg viewBox="0 0 32 32" fill="none" xmlns="http://www.w3.org/2000/svg">
<path d="M16 2C19.1826 2 22.2348 3.26428 24.4853 5.51472C26.7357 7.76515 28 10.8174 28 14C28 18.968 24.2133 24.1733 16.8 29.7333C16.5692 29.9064 16.2885 30 16 30C15.7115 30 15.4308 29.9064 15.2 29.7333C7.78667 24.1733 4 18.968 4 14C4 10.8174 5.26428 7.76515 7.51472 5.51472C9.76515 3.26428 12.8174 2 16 2ZM16 10C14.9391 10 13.9217 10.4214 13.1716 11.1716C12.4214 11.9217 12 12.9391 12 14C12 15.0609 12.4214 16.0783 13.1716 16.8284C13.9217 17.5786 14.9391 18 16 18C17.0609 18 18.0783 17.5786 18.8284 16.8284C19.5786 16.0783 20 15.0609 20 14C20 12.9391 19.5786 11.9217 18.8284 11.1716C18.0783 10.4214 17.0609 10 16 10Z" fill="#F9B700"/>
</svg>
