<svg width="32" height="32" viewBox="0 0 32 32" fill="none" xmlns="http://www.w3.org/2000/svg">
<path fill-rule="evenodd" clip-rule="evenodd" d="M16 29C23.1797 29 29 23.1797 29 16C29 8.8203 23.1797 3 16 3C8.8203 3 3 8.8203 3 16C3 23.1797 8.8203 29 16 29ZM16.9411 20.1844C14.74 19.0567 12.9356 17.26 11.8156 15.0589L13.5267 13.3478C13.7444 13.13 13.8067 12.8267 13.7211 12.5544C13.4333 11.6833 13.2778 10.75 13.2778 9.77778C13.2778 9.35 12.9278 9 12.5 9H9.77778C9.35 9 9 9.35 9 9.77778C9 17.0811 14.9189 23 22.2222 23C22.65 23 23 22.65 23 22.2222V19.5078C23 19.08 22.65 18.73 22.2222 18.73C21.2578 18.73 20.3167 18.5744 19.4456 18.2867C19.1733 18.1933 18.8622 18.2633 18.6522 18.4733L16.9411 20.1844Z" fill="#F9B700"/>
</svg>
