<svg width="32" height="32" fill="none" xmlns="http://www.w3.org/2000/svg"><path fill-rule="evenodd" clip-rule="evenodd" d="M16 29c7.18 0 13-5.82 13-13S23.18 3 16 3 3 8.82 3 16s5.82 13 13 13Zm.941-8.816a11.782 11.782 0 0 1-5.125-5.125l1.71-1.711a.78.78 0 0 0 .195-.794 8.835 8.835 0 0 1-.443-2.776A.78.78 0 0 0 12.5 9H9.778A.78.78 0 0 0 9 9.778C9 17.08 14.919 23 22.222 23a.78.78 0 0 0 .778-.778v-2.714a.78.78 0 0 0-.778-.778 8.874 8.874 0 0 1-2.776-.443.773.773 0 0 0-.794.186l-1.71 1.711Z" fill="#F9B700"/></svg>