<?xml version="1.0" standalone="no"?>
<!DOCTYPE svg PUBLIC "-//W3C//DTD SVG 20010904//EN"
 "http://www.w3.org/TR/2001/REC-SVG-20010904/DTD/svg10.dtd">
<svg version="1.0" xmlns="http://www.w3.org/2000/svg"
 width="700.000000pt" height="700.000000pt" viewBox="0 0 700.000000 700.000000"
 preserveAspectRatio="xMidYMid meet">
<metadata>
Created by potrace 1.14, written by Peter Selinger 2001-2017
</metadata>
<g transform="translate(0.000000,700.000000) scale(0.100000,-0.100000)"
fill="#000000" stroke="none">
<path d="M2200 3490 l0 -1891 1008 4 c1109 4 1059 1 1277 68 395 122 656 414
706 794 16 121 7 308 -20 410 -46 172 -173 370 -311 482 -76 62 -217 136 -310
162 l-65 18 40 13 c22 7 72 28 110 48 338 168 517 505 476 900 -24 226 -89
374 -233 527 -163 173 -358 271 -653 327 -106 20 -146 21 -1067 25 l-958 4 0
-1891z m1693 1127 c83 -24 133 -53 187 -106 70 -70 94 -139 94 -271 0 -122
-21 -189 -80 -258 -44 -52 -156 -108 -244 -122 -36 -5 -215 -10 -397 -10
l-333 0 0 396 0 396 358 -5 c292 -3 368 -7 415 -20z m39 -1458 c135 -28 247
-112 301 -227 30 -63 32 -74 32 -182 0 -105 -2 -120 -28 -175 -50 -107 -132
-173 -263 -210 -50 -15 -122 -18 -456 -22 l-398 -5 0 416 0 416 380 0 c238 0
399 -4 432 -11z"/>
</g>
</svg>
