<svg width="120" height="82" viewBox="0 0 120 82" fill="none" xmlns="http://www.w3.org/2000/svg">
<rect width="120" height="68" rx="8" fill="#201E24"/>
<path d="M23.0593 20.6121C24.3088 20.8811 25.3126 21.512 26.0706 22.5049C26.8285 23.4772 27.2075 24.5943 27.2075 25.8561C27.2075 27.6765 26.5724 29.1246 25.3024 30.2003C24.0528 31.2553 22.3013 31.7828 20.0479 31.7828H10L10 10L19.7099 10C21.9018 10 23.6123 10.5068 24.8415 11.5205C26.091 12.5341 26.7158 13.9097 26.7158 15.6474C26.7158 16.9299 26.3778 17.9953 25.7018 18.8434C25.0463 19.6916 24.1654 20.2811 23.0593 20.6121ZM15.2544 18.8124H18.6959C19.5563 18.8124 20.2118 18.6262 20.6625 18.2539C21.1337 17.8608 21.3692 17.292 21.3692 16.5472C21.3692 15.8025 21.1337 15.2337 20.6625 14.8406C20.2118 14.4476 19.5563 14.2511 18.6959 14.2511L15.2544 14.2511L15.2544 18.8124ZM19.1261 27.5007C20.007 27.5007 20.683 27.3042 21.1541 26.9111C21.6458 26.4974 21.8916 25.9079 21.8916 25.1425C21.8916 24.3771 21.6355 23.7771 21.1234 23.3427C20.6318 22.9083 19.9455 22.6911 19.0647 22.6911H15.2544L15.2544 27.5007H19.1261Z" fill="#BF6C9E"/>
<path d="M34.5876 14.2511V18.6573L41.6243 18.6573V22.7532L34.5876 22.7532V27.5317H42.5461V31.7828H29.3332L29.3332 10L42.5461 10V14.2511L34.5876 14.2511Z" fill="#BF6C9E"/>
<path d="M58.4635 27.9351H50.4129L49.1223 31.7828H43.622L51.4269 10H57.5109L65.3158 31.7828L59.7541 31.7828L58.4635 27.9351ZM57.1115 23.8392L54.4382 15.8646L51.7956 23.8392H57.1115Z" fill="#BF6C9E"/>
<path d="M71.9316 10V23.0324C71.9316 24.3357 72.2491 25.339 72.8841 26.0423C73.5192 26.7457 74.4512 27.0973 75.6803 27.0973C76.9095 27.0973 77.8518 26.7457 78.5073 26.0423C79.1628 25.339 79.4906 24.3357 79.4906 23.0324V10L84.745 10V23.0014C84.745 24.9459 84.3353 26.5905 83.5159 27.9351C82.6965 29.2797 81.5903 30.2934 80.1973 30.976C78.8248 31.6587 77.2884 32 75.5882 32C73.8879 32 72.3618 31.669 71.0097 31.0071C69.6782 30.3244 68.6232 29.3108 67.8448 27.9661C67.0664 26.6008 66.6771 24.9459 66.6771 23.0014V10L71.9316 10Z" fill="#BF6C9E"/>
<path d="M103.03 10V14.2511H97.315V31.7828H92.0606V14.2511L86.3452 14.2511V10L103.03 10Z" fill="#BF6C9E"/>
<path d="M110 10V31.7828L104.746 31.7828V10H110Z" fill="#BF6C9E"/>
<path d="M19.9963 46.6381C21.1988 46.8689 22.2178 47.4983 23.0533 48.5265C23.8889 49.5546 24.3067 50.7506 24.3067 52.1144C24.3067 53.2265 24.0316 54.2337 23.4813 55.1359C22.9514 56.0172 22.1668 56.7201 21.1274 57.2446C20.088 57.7482 18.8449 58 17.3979 58H10L10 36H17.1839C19.3442 36 20.9848 36.5141 22.1057 37.5422C23.2469 38.5703 23.8176 39.9027 23.8176 41.5393C23.8176 42.9032 23.4609 44.0153 22.7476 44.8755C22.0343 45.7148 21.1172 46.3023 19.9963 46.6381ZM12.1399 45.7253H17.1228C18.5697 45.7253 19.6805 45.3791 20.4549 44.6867C21.2497 43.9733 21.6471 42.9976 21.6471 41.7597C21.6471 40.5427 21.2497 39.588 20.4549 38.8956C19.6805 38.2031 18.5392 37.8569 17.0311 37.8569H12.1399L12.1399 45.7253ZM17.2451 56.1431C18.7939 56.1431 19.9963 55.7654 20.8523 55.01C21.7286 54.2546 22.1668 53.216 22.1668 51.8941C22.1668 50.5722 21.7083 49.5231 20.7912 48.7468C19.8944 47.9495 18.6818 47.5508 17.1533 47.5508H12.1399L12.1399 56.1431H17.2451Z" fill="#F4F4F4"/>
<path d="M39.7041 52.7754H29.9829L28.1181 58H25.856L33.6513 36.2833H36.0663L43.831 58L41.5689 58L39.7041 52.7754ZM39.0621 50.9499L34.8435 39.0529L30.6249 50.9499L39.0621 50.9499Z" fill="#F4F4F4"/>
<path d="M47.7239 56.0486H58.6373V58H45.2172V56.2375L55.9778 37.9514H45.4006V36H58.4845V37.7625L47.7239 56.0486Z" fill="#F4F4F4"/>
<path d="M73.8731 52.7754L64.1519 52.7754L62.2871 58H60.0249L67.8202 36.2833H70.2353L78 58H75.7378L73.8731 52.7754ZM73.2311 50.9499L69.0125 39.0529L64.7938 50.9499L73.2311 50.9499Z" fill="#F4F4F4"/>
<path d="M60 76V76C56.7235 72.7235 52.6486 70.3587 48.1781 69.1395L44 68L76 68L71.8219 69.1395C67.3514 70.3587 63.2765 72.7235 60 76V76Z" fill="#201E24"/>
</svg>
