<svg version="1.0" xmlns="http://www.w3.org/2000/svg" width="933.333" height="933.333" viewBox="0 0 700 700"><path d="M220 351v189.1l100.8-.4c110.9-.4 105.9-.1 127.7-6.8 39.5-12.2 65.6-41.4 70.6-79.4 1.6-12.1.7-30.8-2-41-4.6-17.2-17.3-37-31.1-48.2-7.6-6.2-21.7-13.6-31-16.2l-6.5-1.8 4-1.3c2.2-.7 7.2-2.8 11-4.8 33.8-16.8 51.7-50.5 47.6-90-2.4-22.6-8.9-37.4-23.3-52.7-16.3-17.3-35.8-27.1-65.3-32.7-10.6-2-14.6-2.1-106.7-2.5l-95.8-.4V351zm169.3-112.7c8.3 2.4 13.3 5.3 18.7 10.6 7 7 9.4 13.9 9.4 27.1 0 12.2-2.1 18.9-8 25.8-4.4 5.2-15.6 10.8-24.4 12.2-3.6.5-21.5 1-39.7 1H312v-79.2l35.8.5c29.2.3 36.8.7 41.5 2zm3.9 145.8c13.5 2.8 24.7 11.2 30.1 22.7 3 6.3 3.2 7.4 3.2 18.2 0 10.5-.2 12-2.8 17.5-5 10.7-13.2 17.3-26.3 21-5 1.5-12.2 1.8-45.6 2.2l-39.8.5V383h38c23.8 0 39.9.4 43.2 1.1z"/></svg>